<?xml version="1.0"?>
<svg width="781.43" height="756.44" xmlns="http://www.w3.org/2000/svg" xmlns:svg="http://www.w3.org/2000/svg" xmlns:xlink="http://www.w3.org/1999/xlink" data-name="Layer 1">
 <defs>
  <linearGradient id="b3f40125-0363-42ff-a31c-61eb5d655202" x1="0.5" x2="0.5" y1="1" y2="0">
   <stop offset="0" stop-color="gray" stop-opacity="0.25" style="--darkreader-inline-stopcolor:#60686c;"/>
   <stop offset="0.54" stop-color="gray" stop-opacity="0.12" style="--darkreader-inline-stopcolor:#60686c;"/>
   <stop offset="1" stop-color="gray" stop-opacity="0.1" style="--darkreader-inline-stopcolor:#60686c;"/>
  </linearGradient>
  <linearGradient id="27ca4b3e-9552-41ad-8ba5-de2574048d20" x1="385.08" x2="385.08" xlink:href="#b3f40125-0363-42ff-a31c-61eb5d655202" y1="490.21" y2="258.44"/>
  <linearGradient id="98d2c4cc-353c-49f3-ae94-49dceb95b558" x1="384.97" x2="384.97" xlink:href="#b3f40125-0363-42ff-a31c-61eb5d655202" y1="232.29" y2="0.51"/>
  <linearGradient id="1b187342-85ad-4174-acd7-e912b9a9009d" x1="661.23" x2="661.23" xlink:href="#b3f40125-0363-42ff-a31c-61eb5d655202" y1="231.77" y2="0"/>
  <linearGradient id="5629c76b-b43c-4c6e-ad7d-c063ce4611c3" x1="115.89" x2="115.89" xlink:href="#b3f40125-0363-42ff-a31c-61eb5d655202" y1="482.62" y2="250.85"/>
  <linearGradient id="94554b54-cbd9-41c5-8f29-6b4786d89c61" x1="665.55" x2="665.55" xlink:href="#b3f40125-0363-42ff-a31c-61eb5d655202" y1="495.47" y2="263.7"/>
  <linearGradient id="897c833c-fa4a-4dad-90f9-1cb0d950ec3f" x1="116.72" x2="116.72" xlink:href="#b3f40125-0363-42ff-a31c-61eb5d655202" y1="743.15" y2="511.38"/>
  <linearGradient id="b88de7bb-a3e6-477b-a3c4-5c16e389ed83" x1="392.03" x2="392.03" xlink:href="#b3f40125-0363-42ff-a31c-61eb5d655202" y1="756.44" y2="524.67"/>
 </defs>
 <title>team</title>
 <g class="layer">
  <title>Layer 1</title>
  <g id="svg_1" opacity="0.5">
   <circle cx="116.72" cy="122.09" fill="url(#b3f40125-0363-42ff-a31c-61eb5d655202)" id="svg_2" r="115.89"/>
  </g>
  <circle cx="116.72" cy="121.46" fill="#f5f5f5" id="svg_3" r="113.44" style="--darkreader-inline-fill:#1e2021;"/>
  <path d="m117.04,235.22a112.91,112.91 0 0 0 62.36,-18.66c-4.18,-22.84 -20.09,-24.15 -20.09,-24.15l-87.71,0s-15,1.23 -19.7,22.25a112.92,112.92 0 0 0 65.14,20.56z" fill="#f7941e" id="svg_4" style="--darkreader-inline-fill:#b86707;" transform="matrix(1 0 0 1 0 0)"/>
  <circle cx="115.85" cy="118.96" fill="#333" id="svg_5" r="50.29" style="--darkreader-inline-fill:#262a2b;"/>
  <path d="m98.18,164.57l35.09,0a0,0 0 0 1 0,0l0,28.07a17.54,17.54 0 0 1 -17.54,17.54l0,0a17.54,17.54 0 0 1 -17.54,-17.54l0,-28.07a0,0 0 0 1 -0.01,0z" id="svg_6" opacity="0.1"/>
  <path d="m101.53,163.27l28.39,0a3.35,3.35 0 0 1 3.35,3.35l0,24.72a17.54,17.54 0 0 1 -17.54,17.54l0,0a17.54,17.54 0 0 1 -17.54,-17.54l0,-24.72a3.35,3.35 0 0 1 3.34,-3.35z" fill="#be7c5e" id="svg_7" style="--darkreader-inline-fill:#854e36;"/>
  <path d="m307.53,249.6a50.5,50.5 0 0 0 35.09,0.1l0,-4.31l-35.09,0l0,4.21z" id="svg_8" opacity="0.1" transform="translate(-209.28 -71.78)"/>
  <circle cx="115.85" cy="129.88" fill="#be7c5e" id="svg_9" r="50.29" style="--darkreader-inline-fill:#854e36;"/>
  <path d="m294.66,180.92c0.59,-2.17 1.33,-4.56 3.28,-5.69c1.54,-0.9 3.45,-0.76 5.23,-0.67c13.9,0.76 27.68,-2.41 41.2,-5.72c7.73,-1.89 16,-4.19 21,-10.42s-1.52,-25.81 -9.13,-28.12c-5,-1.53 -10.8,1.32 -15.54,-0.92c-2.11,-1 -3.66,-2.87 -5.48,-4.33c-3.73,-3 -8.52,-4.21 -13.16,-5.35c-5.42,-1.34 -11.28,-2.65 -16.43,-0.5c-4,1.66 -6.92,5.17 -10.71,7.25c-7.21,4 -16,2.14 -24.26,2.12c-2.79,0 -6.12,0.56 -7.23,3.12c-0.75,1.74 -0.15,3.72 -0.07,5.61c0.24,6 -4.71,10.67 -8.86,15s-8.07,10.51 -5.45,15.89c1,2.05 2.83,3.6 3.87,5.63c1.79,3.52 0.89,7.77 1.54,11.66a29.34,29.34 0 0 0 3.27,8.4c3.08,6 18.55,38.3 25.66,30.09c3.44,-4 4,-15.56 5.39,-20.76q2.88,-11.21 5.88,-22.29z" fill="#333" id="svg_10" style="--darkreader-inline-fill:#262a2b;" transform="translate(-209.28 -71.78)"/>
  <ellipse cx="80.07" cy="128.05" fill="#be7c5e" id="svg_11" rx="4.68" ry="8.77" style="--darkreader-inline-fill:#c3866a;"/>
  <g id="svg_12" opacity="0.5">
   <circle cx="385.08" cy="374.32" fill="url(#27ca4b3e-9552-41ad-8ba5-de2574048d20)" id="svg_13" r="115.89"/>
  </g>
  <circle cx="385.3" cy="373.58" fill="#f5f5f5" id="svg_14" r="113.44" style="--darkreader-inline-fill:#1e2021;"/>
  <path d="m385.4,487.47a112.91,112.91 0 0 0 62.32,-18.66c-4.18,-22.84 -20.09,-24.15 -20.09,-24.15l-87.68,0s-15,1.23 -19.7,22.25a112.92,112.92 0 0 0 65.15,20.56z" fill="#f7941e" id="svg_15" style="--darkreader-inline-fill:#b86707;" transform="matrix(1 0 0 1 0 0)"/>
  <circle cx="384.2" cy="371.19" fill="#f55f44" id="svg_16" r="54.76" style="--darkreader-inline-fill:#a12009;"/>
  <path d="m366.53,416.8l35.09,0a0,0 0 0 1 0,0l0,28.07a17.54,17.54 0 0 1 -17.54,17.54l0,0a17.54,17.54 0 0 1 -17.54,-17.54l0,-28.07a0,0 0 0 1 -0.01,0z" id="svg_17" opacity="0.1"/>
  <path d="m369.88,415.5l28.39,0a3.35,3.35 0 0 1 3.35,3.35l0,24.72a17.54,17.54 0 0 1 -17.54,17.54l0,0a17.54,17.54 0 0 1 -17.54,-17.54l0,-24.72a3.35,3.35 0 0 1 3.35,-3.35l-0.01,0z" fill="#fda57d" id="svg_18" style="--darkreader-inline-fill:#802902;"/>
  <path d="m575.88,501.83a50.5,50.5 0 0 0 35.09,0.1l0,-4.31l-35.09,0l0,4.21z" id="svg_19" opacity="0.1" transform="translate(-209.28 -71.78)"/>
  <circle cx="384.2" cy="382.11" fill="#fda57d" id="svg_20" r="50.29" style="--darkreader-inline-fill:#802902;"/>
  <circle cx="384.13" cy="315.49" fill="#f55f44" id="svg_21" r="20.24" style="--darkreader-inline-fill:#a12009;"/>
  <circle cx="384.13" cy="295.56" fill="#f55f44" id="svg_22" r="13.29" style="--darkreader-inline-fill:#f5664c;"/>
  <path d="m584.63,398.37a20.24,20.24 0 0 1 -10.55,-25.88c-0.14,0.28 -0.28,0.57 -0.41,0.86a20.24,20.24 0 1 0 36.94,16.57c0.13,-0.29 0.25,-0.58 0.37,-0.88a20.24,20.24 0 0 1 -26.35,9.33z" fill="#f55f44" id="svg_23" style="--darkreader-inline-fill:#a12009;" transform="translate(-209.28 -71.78)"/>
  <path d="m557.67,408.15s21.19,43 81,18l-13.92,-21.83l-24.67,-8.86l-42.41,12.69z" id="svg_24" opacity="0.1" transform="translate(-209.28 -71.78)"/>
  <path d="m557.67,407.51s21.19,43 81,18l-13.92,-21.83l-24.67,-8.86l-42.41,12.69z" fill="#f55f44" id="svg_25" style="--darkreader-inline-fill:#a12009;" transform="translate(-209.28 -71.78)"/>
  <path d="m574,391.85a249.85,249.85 0 0 1 39.18,0s-28.94,2.69 -39.18,0z" fill="#333" id="svg_26" style="--darkreader-inline-fill:#262a2b;" transform="translate(-209.28 -71.78)"/>
  <path d="m596.45,353.24a13.32,13.32 0 0 0 -3,0.23l0.77,0a13.28,13.28 0 0 1 2,26.33a13.28,13.28 0 0 0 0.24,-26.56l-0.01,0z" fill="#f55f44" id="svg_27" style="--darkreader-inline-fill:#f5664c;" transform="translate(-209.28 -71.78)"/>
  <ellipse cx="333.9" cy="382.06" fill="#fda57d" id="svg_28" rx="4.68" ry="8.77" style="--darkreader-inline-fill:#fd9d72;"/>
  <ellipse cx="434.49" cy="382.06" fill="#fda57d" id="svg_29" rx="4.68" ry="8.77" style="--darkreader-inline-fill:#fd9d72;"/>
  <polygon fill="#f55f44" id="svg_30" points="345.22 337 355.03 331.94 357.24 340.05 351.23 344.14 345.22 337" style="--darkreader-inline-fill:#f5664c;"/>
  <g id="svg_31" opacity="0.5">
   <circle cx="384.97" cy="116.4" fill="url(#98d2c4cc-353c-49f3-ae94-49dceb95b558)" id="svg_32" r="115.89"/>
  </g>
  <circle cx="384.97" cy="115.77" fill="#f5f5f5" id="svg_33" r="113.44" style="--darkreader-inline-fill:#1e2021;"/>
  <path d="m550,188.56s-12.86,63.36 -19.88,59.85c0,0 67.7,58.48 127.48,0c0,0 -10.53,-44.65 -25.73,-59.85l-81.87,0z" fill="#333" id="svg_34" style="--darkreader-inline-fill:#262a2b;" transform="translate(-209.28 -71.78)"/>
  <path d="m385.29,229.55a112.91,112.91 0 0 0 62.36,-18.66c-4.18,-22.84 -20.09,-24.15 -20.09,-24.15l-87.72,0s-15,1.23 -19.7,22.25a112.92,112.92 0 0 0 65.15,20.56z" fill="#00aeef" id="svg_35" style="--darkreader-inline-fill:#008bbf;"/>
  <circle cx="384.09" cy="113.27" fill="#333" id="svg_36" r="50.29" style="--darkreader-inline-fill:#262a2b;"/>
  <path d="m366.42,158.88l35.09,0a0,0 0 0 1 0,0l0,28.07a17.54,17.54 0 0 1 -17.51,17.54l0,0a17.54,17.54 0 0 1 -17.54,-17.54l0,-28.07a0,0 0 0 1 -0.04,0z" id="svg_37" opacity="0.1"/>
  <path d="m369.77,157.58l28.39,0a3.35,3.35 0 0 1 3.35,3.35l0,24.72a17.54,17.54 0 0 1 -17.51,17.54l0,0a17.54,17.54 0 0 1 -17.54,-17.54l0,-24.73a3.35,3.35 0 0 1 3.31,-3.34z" fill="#be7c5e" id="svg_38" style="--darkreader-inline-fill:#854e36;"/>
  <path d="m575.77,243.91a50.5,50.5 0 0 0 35.09,0.1l0,-4.31l-35.09,0l0,4.21z" id="svg_39" opacity="0.1" transform="translate(-209.28 -71.78)"/>
  <circle cx="384.09" cy="124.18" fill="#be7c5e" id="svg_40" r="50.29" style="--darkreader-inline-fill:#854e36;"/>
  <path d="m545.3,176.86l95.9,0s-8.19,-38.72 -44.44,-36.25s-51.46,36.25 -51.46,36.25z" fill="#333" id="svg_41" style="--darkreader-inline-fill:#262a2b;" transform="translate(-209.28 -71.78)"/>
  <ellipse cx="334.84" cy="122.04" fill="#be7c5e" id="svg_42" rx="4.68" ry="8.77" style="--darkreader-inline-fill:#c3866a;"/>
  <ellipse cx="433.08" cy="122.04" fill="#be7c5e" id="svg_43" rx="4.68" ry="8.77" style="--darkreader-inline-fill:#c3866a;"/>
  <path d="m545.3,178.16l95.9,0s-8.19,-38.72 -44.44,-36.25s-51.46,36.25 -51.46,36.25z" id="svg_44" opacity="0.1" transform="translate(-209.28 -71.78)"/>
  <g id="svg_45" opacity="0.5">
   <circle cx="661.23" cy="115.89" fill="url(#1b187342-85ad-4174-acd7-e912b9a9009d)" id="svg_46" r="115.89"/>
  </g>
  <circle cx="661.45" cy="115.14" fill="#f5f5f5" id="svg_47" r="113.44" style="--darkreader-inline-fill:#1e2021;"/>
  <path d="m661.55,229.04a112.91,112.91 0 0 0 62.36,-18.66c-4.19,-22.85 -20.09,-24.16 -20.09,-24.16l-87.71,0s-15,1.23 -19.7,22.25a112.92,112.92 0 0 0 65.14,20.57z" fill="#f7941e" id="svg_48" style="--darkreader-inline-fill:#b86707;" transform="matrix(1 0 0 1 0 0)"/>
  <circle cx="660.36" cy="112.75" fill="#72351c" id="svg_49" r="54.76" style="--darkreader-inline-fill:#5b2a16;"/>
  <path d="m642.68,158.36l35.09,0a0,0 0 0 1 0,0l0,28.07a17.54,17.54 0 0 1 -17.54,17.57l0,0a17.54,17.54 0 0 1 -17.54,-17.54l0,-28.1a0,0 0 0 1 -0.01,0z" id="svg_50" opacity="0.1"/>
  <path d="m646,157.06l28.39,0a3.35,3.35 0 0 1 3.35,3.35l0,24.72a17.54,17.54 0 0 1 -17.54,17.54l0,0a17.54,17.54 0 0 1 -17.54,-17.54l0,-24.72a3.35,3.35 0 0 1 3.35,-3.35l-0.01,0z" fill="#fda57d" id="svg_51" style="--darkreader-inline-fill:#802902;"/>
  <path d="m852,243.39a50.5,50.5 0 0 0 35.09,0.1l0,-4.31l-35.09,0l0,4.21z" id="svg_52" opacity="0.1" transform="translate(-209.28 -71.78)"/>
  <circle cx="660.36" cy="123.67" fill="#fda57d" id="svg_53" r="50.29" style="--darkreader-inline-fill:#802902;"/>
  <path d="m833.82,149.71s21.19,43 81,18l-13.92,-21.83l-24.67,-8.86l-42.41,12.69z" id="svg_54" opacity="0.1" transform="translate(-209.28 -71.78)"/>
  <path d="m833.82,149.08s21.19,43 81,18l-13.92,-21.83l-24.67,-8.86l-42.41,12.69z" fill="#72351c" id="svg_55" style="--darkreader-inline-fill:#5b2a16;" transform="translate(-209.28 -71.78)"/>
  <path d="m833.63,146.17a29.05,29.05 0 0 1 7.2,-11.71c9.89,-9.78 26.11,-11.84 34.43,-23a6.51,6.51 0 0 1 -3,9.18c8,-0.05 17.21,-0.75 21.71,-7.31a14.91,14.91 0 0 1 -2.51,15.74c7.06,0.32 14.6,5.11 15.06,12.17c0.3,4.7 -2.64,9.15 -6.51,11.85s-8.53,3.91 -13.13,4.91c-13.42,3 -62.01,15.41 -53.25,-11.83z" fill="#72351c" id="svg_56" style="--darkreader-inline-fill:#5b2a16;" transform="translate(-209.28 -71.78)"/>
  <path d="m919.93,195.89l-1.33,0l-25.94,23.11c-25,-11.7 -43.34,0 -43.34,0l-27.2,-22.14l-2.74,0.34a50.29,50.29 0 0 0 100.56,-1.29l-0.01,-0.02zm-50.36,31.95c-9.78,0 -17.71,-2 -17.71,-4.43s7.93,-4.43 17.71,-4.43s17.71,2 17.71,4.43s-7.93,4.43 -17.72,4.43l0.01,0z" fill="#72351c" id="svg_57" style="--darkreader-inline-fill:#5b2a16;" transform="translate(-209.28 -71.78)"/>
  <ellipse cx="610.05" cy="123.62" fill="#fda57d" id="svg_58" rx="4.68" ry="8.77" style="--darkreader-inline-fill:#fd9d72;"/>
  <ellipse cx="710.64" cy="123.62" fill="#fda57d" id="svg_59" rx="4.68" ry="8.77" style="--darkreader-inline-fill:#fd9d72;"/>
  <g id="svg_60" opacity="0.5">
   <circle cx="115.89" cy="366.73" fill="url(#5629c76b-b43c-4c6e-ad7d-c063ce4611c3)" id="svg_61" r="115.89"/>
  </g>
  <circle cx="116.11" cy="365.99" fill="#f5f5f5" id="svg_62" r="113.44" style="--darkreader-inline-fill:#1e2021;"/>
  <path d="m116.21,479.88a112.91,112.91 0 0 0 62.35,-18.66c-4.18,-22.84 -20.09,-24.15 -20.09,-24.15l-87.75,0s-15,1.23 -19.7,22.25a112.92,112.92 0 0 0 65.19,20.56z" fill="#00aeef" id="svg_63" style="--darkreader-inline-fill:#008bbf;" transform="matrix(1 0 0 1 0 0)"/>
  <circle cx="115.01" cy="363.6" fill="#333" id="svg_64" r="54.76" style="--darkreader-inline-fill:#262a2b;"/>
  <path d="m97.34,409.21l35.09,0a0,0 0 0 1 0,0l0,28.07a17.54,17.54 0 0 1 -17.54,17.54l0,0a17.54,17.54 0 0 1 -17.54,-17.54l0,-28.07a0,0 0 0 1 -0.01,0z" id="svg_65" opacity="0.1"/>
  <path d="m100.69,407.91l28.39,0a3.35,3.35 0 0 1 3.35,3.35l0,24.74a17.54,17.54 0 0 1 -17.54,17.54l0,0a17.54,17.54 0 0 1 -17.55,-17.54l0,-24.75a3.35,3.35 0 0 1 3.35,-3.35l0,0.01z" fill="#fdb797" id="svg_66" style="--darkreader-inline-fill:#702502;"/>
  <path d="m306.69,494.24a50.5,50.5 0 0 0 35.09,0.1l0,-4.34l-35.09,0l0,4.24z" id="svg_67" opacity="0.1" transform="translate(-209.28 -71.78)"/>
  <circle cx="115.01" cy="374.52" fill="#fdb797" id="svg_68" r="50.29" style="--darkreader-inline-fill:#702502;"/>
  <path d="m288.48,400.55s21.19,43 81,18l-13.92,-21.83l-24.67,-8.86l-42.41,12.69z" id="svg_69" opacity="0.1" transform="translate(-209.28 -71.78)"/>
  <path d="m288.48,399.92s21.19,43 81,18l-13.92,-21.83l-24.67,-8.86l-42.41,12.69z" fill="#333" id="svg_70" style="--darkreader-inline-fill:#262a2b;" transform="translate(-209.28 -71.78)"/>
  <path d="m288.29,397a29.05,29.05 0 0 1 7.2,-11.71c9.89,-9.78 26.11,-11.84 34.43,-23a6.51,6.51 0 0 1 -3,9.18c8,-0.05 17.21,-0.75 21.71,-7.31a14.91,14.91 0 0 1 -2.51,15.74c7.06,0.32 14.6,5.11 15.06,12.17c0.3,4.7 -2.64,9.15 -6.51,11.85s-8.54,3.93 -13.14,4.95c-13.42,2.98 -62,15.39 -53.24,-11.87z" fill="#333" id="svg_71" style="--darkreader-inline-fill:#262a2b;" transform="translate(-209.28 -71.78)"/>
  <ellipse cx="64.7" cy="374.47" fill="#fdb797" id="svg_72" rx="4.68" ry="8.77" style="--darkreader-inline-fill:#fdaa84;"/>
  <ellipse cx="165.29" cy="374.47" fill="#fdb797" id="svg_73" rx="4.68" ry="8.77" style="--darkreader-inline-fill:#fdaa84;"/>
  <g id="svg_74" opacity="0.5">
   <circle cx="665.55" cy="379.58" fill="url(#94554b54-cbd9-41c5-8f29-6b4786d89c61)" id="svg_75" r="115.89"/>
  </g>
  <circle cx="665.55" cy="378.95" fill="#f5f5f5" id="svg_76" r="113.44" style="--darkreader-inline-fill:#1e2021;"/>
  <path d="m665.87,492.73a112.91,112.91 0 0 0 62.36,-18.66c-4.18,-22.84 -20.09,-24.15 -20.09,-24.15l-87.72,0s-15,1.23 -19.7,22.25a112.92,112.92 0 0 0 65.15,20.56z" fill="#00aeef" id="svg_77" style="--darkreader-inline-fill:#008bbf;" transform="matrix(1 0 0 1 0 0)"/>
  <path d="m647,422.06l35.09,0a0,0 0 0 1 0,0l0,28.07a17.54,17.54 0 0 1 -17.54,17.54l0,0a17.54,17.54 0 0 1 -17.55,-17.54l0,-28.07a0,0 0 0 1 0,0z" id="svg_78" opacity="0.1"/>
  <path d="m650.35,420.76l28.39,0a3.35,3.35 0 0 1 3.35,3.35l0,24.72a17.54,17.54 0 0 1 -17.54,17.54l0,0a17.54,17.54 0 0 1 -17.55,-17.54l0,-24.72a3.35,3.35 0 0 1 3.35,-3.35z" fill="#fdb797" id="svg_79" style="--darkreader-inline-fill:#702502;"/>
  <path d="m856.35,507.09a50.5,50.5 0 0 0 35.09,0.1l0,-4.31l-35.09,0l0,4.21z" id="svg_80" opacity="0.1" transform="translate(-209.28 -71.78)"/>
  <circle cx="664.67" cy="387.37" fill="#fdb797" id="svg_81" r="50.29" style="--darkreader-inline-fill:#702502;"/>
  <ellipse cx="615.42" cy="385.22" fill="#fdb797" id="svg_82" rx="4.68" ry="8.77" style="--darkreader-inline-fill:#fdaa84;"/>
  <ellipse cx="713.66" cy="385.22" fill="#fdb797" id="svg_83" rx="4.68" ry="8.77" style="--darkreader-inline-fill:#fdaa84;"/>
  <rect fill="none" height="10.76" id="svg_84" rx="4.35" ry="4.35" stroke="#333" stroke-miterlimit="10" stroke-width="2" style="--darkreader-inline-stroke:#c8c3bc;" width="21.51" x="634.03" y="387.61"/>
  <rect fill="none" height="10.76" id="svg_85" rx="4.35" ry="4.35" stroke="#333" stroke-miterlimit="10" stroke-width="2" style="--darkreader-inline-stroke:#c8c3bc;" transform="translate(1578.42 857.75) rotate(180)" width="21.51" x="883.1" y="459.39"/>
  <path d="m864,460.43s6.82,-3.7 19.5,0" fill="none" id="svg_86" stroke="#333" stroke-miterlimit="10" stroke-width="2" style="--darkreader-inline-stroke:#c8c3bc;" transform="translate(-209.28 -71.78)"/>
  <path d="m908.72,422.7l12.34,28.67s15.09,-19.02 -12.34,-28.67z" fill="#858585" id="svg_87" style="--darkreader-inline-fill:#9b9285;" transform="translate(-209.28 -71.78)"/>
  <line fill="none" id="svg_88" stroke="#333" stroke-linecap="round" stroke-linejoin="round" stroke-width="2" style="--darkreader-inline-stroke:#7b7265;" x1="695.32" x2="713.74" y1="392.99" y2="376.54"/>
  <path d="m839.2,422.7l-12.34,28.67s-15.09,-19.02 12.34,-28.67z" fill="#858585" id="svg_89" style="--darkreader-inline-fill:#9b9285;" transform="translate(-209.28 -71.78)"/>
  <line fill="none" id="svg_90" stroke="#333" stroke-linecap="round" stroke-linejoin="round" stroke-width="2" style="--darkreader-inline-stroke:#7b7265;" x1="634.03" x2="615.36" y1="392.99" y2="376.54"/>
  <g id="svg_91" opacity="0.5">
   <circle cx="116.72" cy="627.26" fill="url(#897c833c-fa4a-4dad-90f9-1cb0d950ec3f)" id="svg_92" r="115.89"/>
  </g>
  <circle cx="116.72" cy="626.63" fill="#f5f5f5" id="svg_93" r="113.44" style="--darkreader-inline-fill:#1e2021;"/>
  <path d="m388.75,708.61c0,41.78 -27.26,88.29 -60.89,88.29s-60.86,-46.51 -60.86,-88.29s27.26,-63 60.89,-63s60.86,21.23 60.86,63z" fill="#fdd835" id="svg_94" style="--darkreader-inline-fill:#816901;" transform="translate(-209.28 -71.78)"/>
  <path d="m117.04,740.42a112.91,112.91 0 0 0 62.36,-18.66c-4.18,-22.84 -20.09,-24.15 -20.09,-24.15l-87.71,0s-15,1.23 -19.7,22.25a112.92,112.92 0 0 0 65.14,20.56z" fill="#f7941e" id="svg_95" style="--darkreader-inline-fill:#b86707;" transform="matrix(1 0 0 1 0 0)"/>
  <path d="m98.18,669.74l35.09,0a0,0 0 0 1 0,0l0,28.07a17.54,17.54 0 0 1 -17.54,17.54l0,0a17.54,17.54 0 0 1 -17.54,-17.54l0,-28.07a0,0 0 0 1 -0.01,0z" id="svg_96" opacity="0.1"/>
  <path d="m101.53,668.44l28.39,0a3.35,3.35 0 0 1 3.35,3.35l0,24.72a17.54,17.54 0 0 1 -17.54,17.54l0,0a17.54,17.54 0 0 1 -17.54,-17.54l0,-24.72a3.35,3.35 0 0 1 3.34,-3.35z" fill="#fdb797" id="svg_97" style="--darkreader-inline-fill:#702502;"/>
  <path d="m307.53,754.77a50.5,50.5 0 0 0 35.09,0.1l0,-4.31l-35.09,0l0,4.21z" id="svg_98" opacity="0.1" transform="translate(-209.28 -71.78)"/>
  <circle cx="115.85" cy="635.05" fill="#fdb797" id="svg_99" r="50.29" style="--darkreader-inline-fill:#702502;"/>
  <ellipse cx="66.6" cy="632.9" fill="#fdb797" id="svg_100" rx="4.68" ry="8.77" style="--darkreader-inline-fill:#fdaa84;"/>
  <ellipse cx="164.84" cy="632.9" fill="#fdb797" id="svg_101" rx="4.68" ry="8.77" style="--darkreader-inline-fill:#fdaa84;"/>
  <path d="m280.57,679.55s28.43,38.91 93.63,25.62c0,0 7.28,-8.86 -10.44,-36.06s-67.06,-22.77 -83.19,10.44z" id="svg_102" opacity="0.1" transform="translate(-209.28 -71.78)"/>
  <path d="m280.57,678.92s28.43,38.91 93.63,25.62c0,0 7.28,-8.86 -10.44,-36.06s-67.06,-22.77 -83.19,10.44z" fill="#fdd835" id="svg_103" style="--darkreader-inline-fill:#816901;" transform="translate(-209.28 -71.78)"/>
  <g id="svg_104" opacity="0.5">
   <circle cx="392.03" cy="640.55" fill="url(#b88de7bb-a3e6-477b-a3c4-5c16e389ed83)" id="svg_105" r="115.89"/>
  </g>
  <circle cx="392.26" cy="639.81" fill="#f5f5f5" id="svg_106" r="113.44" style="--darkreader-inline-fill:#1e2021;"/>
  <path d="m663.95,722.77c0,37.74 -27.11,56.31 -62.32,56.31s-65.16,-18.57 -65.16,-56.31s28.54,-68.33 63.74,-68.33s63.74,30.56 63.74,68.33z" fill="#333" id="svg_107" style="--darkreader-inline-fill:#262a2b;" transform="translate(-209.28 -71.78)"/>
  <path d="m392.35,753.7a112.91,112.91 0 0 0 62.37,-18.66c-4.18,-22.84 -20.09,-24.15 -20.09,-24.15l-87.72,0s-15,1.23 -19.7,22.25a112.92,112.92 0 0 0 65.14,20.56z" fill="#00aeef" id="svg_108" style="--darkreader-inline-fill:#008bbf;" transform="matrix(1 0 0 1 0 0)"/>
  <path d="m373.49,683l35.09,0a0,0 0 0 1 0,0l0,28.07a17.54,17.54 0 0 1 -17.58,17.57l0,0a17.54,17.54 0 0 1 -17.54,-17.54l0,-28.1a0,0 0 0 1 0.03,0z" id="svg_109" opacity="0.1"/>
  <path d="m376.83,681.73l28.39,0a3.35,3.35 0 0 1 3.35,3.35l0,24.72a17.54,17.54 0 0 1 -17.57,17.54l0,0a17.54,17.54 0 0 1 -17.54,-17.54l0,-24.73a3.35,3.35 0 0 1 3.35,-3.35l0.02,0.01z" fill="#fda57d" id="svg_110" style="--darkreader-inline-fill:#802902;"/>
  <path d="m582.84,768.06a50.5,50.5 0 0 0 35.09,0.1l0,-4.31l-35.09,0l0,4.21z" id="svg_111" opacity="0.1" transform="translate(-209.28 -71.78)"/>
  <circle cx="391.16" cy="648.33" fill="#fda57d" id="svg_112" r="50.29" style="--darkreader-inline-fill:#802902;"/>
  <path d="m542.48,723.4s31.32,-3.8 55,-34.16c0,0 31.32,34.48 53.14,30.68c0,0 12.65,-13.29 0,-26.57s-22.46,-30.05 -39.22,-27.84s-37.33,3.16 -46.18,11.07s-22.74,46.82 -22.74,46.82z" id="svg_113" opacity="0.1" transform="translate(-209.28 -71.78)"/>
  <path d="m542.48,722.77s31.32,-3.8 55,-34.16c0,0 31.32,34.48 53.14,30.68c0,0 12.65,-13.29 0,-26.57s-22.46,-30.05 -39.22,-27.84s-37.29,3.12 -46.14,11.12s-22.78,46.77 -22.78,46.77z" fill="#333" id="svg_114" style="--darkreader-inline-fill:#262a2b;" transform="translate(-209.28 -71.78)"/>
  <ellipse cx="340.85" cy="648.29" fill="#fda57d" id="svg_115" rx="4.68" ry="8.77" style="--darkreader-inline-fill:#fd9d72;"/>
  <ellipse cx="441.44" cy="648.29" fill="#fda57d" id="svg_116" rx="4.68" ry="8.77" style="--darkreader-inline-fill:#fd9d72;"/>
 </g>
</svg>